<svg xmlns="http://www.w3.org/2000/svg" version="1.1" xmlns:xlink="http://www.w3.org/1999/xlink" xmlns:svgjs="http://svgjs.dev/svgjs" width="1000" height="257" viewBox="0 0 1000 257"><g transform="matrix(1,0,0,1,-0.6060605586612269,0.1822718232334637)"><svg viewBox="0 0 396 102" data-background-color="#ffffff" preserveAspectRatio="xMidYMid meet" height="257" width="1000" xmlns="http://www.w3.org/2000/svg" xmlns:xlink="http://www.w3.org/1999/xlink"><g id="tight-bounds" transform="matrix(1,0,0,1,0.24000001877016075,-0.06320131704998744)"><svg viewBox="0 0 395.52 102.12640263409997" height="102.12640263409997" width="395.52"><g><svg viewBox="0 0 589.8794979275274 152.3115673314811" height="102.12640263409997" width="395.52"><g transform="matrix(1,0,0,1,0,21.05029620862004)"><svg viewBox="0 0 395.52 110.210974914241" height="110.210974914241" width="395.52"><g><svg viewBox="0 0 395.52 110.210974914241" height="110.210974914241" width="395.52"><g><svg viewBox="0 0 395.52 79.9311564344135" height="79.9311564344135" width="395.52"><g transform="matrix(1,0,0,1,0,0)"><svg width="395.52" viewBox="1.340000033378601 -37.70000076293945 235.8000030517578 47.65999984741211" height="79.9311564344135" data-palette-color="#00172d"><path d="M27.49-9.69L31.2-3.59Q28.76-1.49 25.73-0.37 22.71 0.76 19.46 0.76L19.46 0.76Q16.97 0.76 14.66 0.11 12.35-0.54 10.34-1.72 8.33-2.91 6.67-4.57 5-6.23 3.82-8.24 2.64-10.25 1.99-12.56 1.34-14.87 1.34-17.36L1.34-17.36Q1.34-19.85 1.99-22.17 2.64-24.49 3.82-26.5 5-28.52 6.67-30.18 8.33-31.84 10.34-33.02 12.35-34.2 14.66-34.85 16.97-35.5 19.46-35.5L19.46-35.5Q22.71-35.5 25.73-34.39 28.76-33.28 31.2-31.15L31.2-31.15 27.49-25.05Q25.95-26.71 23.85-27.6 21.75-28.49 19.46-28.49L19.46-28.49Q17.14-28.49 15.11-27.61 13.09-26.73 11.57-25.23 10.06-23.73 9.18-21.69 8.3-19.65 8.3-17.36L8.3-17.36Q8.3-15.06 9.18-13.05 10.06-11.04 11.57-9.52 13.09-8.01 15.11-7.13 17.14-6.25 19.46-6.25L19.46-6.25Q21.75-6.25 23.85-7.14 25.95-8.03 27.49-9.69L27.49-9.69ZM41.21-14.94L41.21 0 34.54 0 34.54-36.55 41.21-36.55 41.21-25Q42.4-25.9 43.67-26.28 44.94-26.66 46.26-26.66L46.26-26.66Q48.68-26.66 50.8-25.74 52.93-24.83 54.5-23.23 56.08-21.63 56.99-19.49 57.91-17.36 57.91-14.94L57.91-14.94 57.91 0 51.19 0 51.19-14.94 51.24-14.94Q51.24-15.97 50.85-16.88 50.46-17.8 49.78-18.48 49.09-19.17 48.19-19.56 47.29-19.95 46.26-19.95L46.26-19.95Q45.21-19.95 44.28-19.56 43.36-19.17 42.67-18.48 41.99-17.8 41.6-16.88 41.21-15.97 41.21-14.94L41.21-14.94ZM69.31-14.4L69.31 0 62.64 0 62.64-26.15 64.25-26.15 66.45-23.05Q68.06-24.51 70.11-25.31 72.16-26.1 74.36-26.1L74.36-26.1 80.24-26.1 80.24-19.46 74.36-19.46Q73.31-19.46 72.38-19.07 71.45-18.68 70.77-17.99 70.09-17.31 69.7-16.38 69.31-15.45 69.31-14.4L69.31-14.4ZM91.2-33.25L91.2-33.25Q91.2-32.32 90.85-31.52 90.5-30.71 89.89-30.11 89.27-29.52 88.46-29.16 87.64-28.81 86.71-28.81L86.71-28.81Q85.78-28.81 84.97-29.16 84.15-29.52 83.55-30.11 82.95-30.71 82.6-31.52 82.24-32.32 82.24-33.25L82.24-33.25Q82.24-34.16 82.6-34.97 82.95-35.79 83.55-36.39 84.15-36.99 84.97-37.34 85.78-37.7 86.71-37.7L86.71-37.7Q87.64-37.7 88.46-37.34 89.27-36.99 89.89-36.39 90.5-35.79 90.85-34.97 91.2-34.16 91.2-33.25ZM90.06-26.15L90.06 0 83.34 0 83.34-26.15 90.06-26.15ZM109.49 0L109.49 0 94.25 0 94.25-6.64 109.49-6.64Q110.17-6.64 110.66-7.13 111.15-7.62 111.15-8.3L111.15-8.3Q111.15-9.01 110.66-9.23 110.17-9.45 109.49-9.45L109.49-9.45 102.55-9.45Q100.82-9.45 99.31-10.11 97.79-10.77 96.67-11.9 95.55-13.04 94.9-14.55 94.25-16.06 94.25-17.8L94.25-17.8Q94.25-19.53 94.9-21.04 95.55-22.56 96.67-23.68 97.79-24.8 99.31-25.45 100.82-26.1 102.55-26.1L102.55-26.1 116.05-26.1 116.05-19.46 102.55-19.46Q101.87-19.46 101.38-18.97 100.89-18.48 100.89-17.8L100.89-17.8Q100.89-17.09 101.38-16.59 101.87-16.09 102.55-16.09L102.55-16.09 109.49-16.09Q111.2-16.09 112.71-15.52 114.22-14.94 115.35-13.92 116.47-12.89 117.13-11.45 117.79-10.01 117.79-8.3L117.79-8.3Q117.79-6.57 117.13-5.07 116.47-3.56 115.35-2.43 114.22-1.29 112.71-0.65 111.2 0 109.49 0ZM146.28-9.69L149.99-3.59Q147.55-1.49 144.52-0.37 141.49 0.76 138.24 0.76L138.24 0.76Q135.75 0.76 133.45 0.11 131.14-0.54 129.13-1.72 127.11-2.91 125.45-4.57 123.79-6.23 122.61-8.24 121.42-10.25 120.78-12.56 120.13-14.87 120.13-17.36L120.13-17.36Q120.13-19.85 120.78-22.17 121.42-24.49 122.61-26.5 123.79-28.52 125.45-30.18 127.11-31.84 129.13-33.02 131.14-34.2 133.45-34.85 135.75-35.5 138.24-35.5L138.24-35.5Q141.49-35.5 144.52-34.39 147.55-33.28 149.99-31.15L149.99-31.15 146.28-25.05Q144.74-26.71 142.64-27.6 140.54-28.49 138.24-28.49L138.24-28.49Q135.93-28.49 133.9-27.61 131.87-26.73 130.36-25.23 128.84-23.73 127.97-21.69 127.09-19.65 127.09-17.36L127.09-17.36Q127.09-15.06 127.97-13.05 128.84-11.04 130.36-9.52 131.87-8.01 133.9-7.13 135.93-6.25 138.24-6.25L138.24-6.25Q140.54-6.25 142.64-7.14 144.74-8.03 146.28-9.69L146.28-9.69ZM159.99-14.94L159.99 0 153.33 0 153.33-36.55 159.99-36.55 159.99-25Q161.19-25.9 162.46-26.28 163.73-26.66 165.05-26.66L165.05-26.66Q167.47-26.66 169.59-25.74 171.71-24.83 173.29-23.23 174.86-21.63 175.78-19.49 176.69-17.36 176.69-14.94L176.69-14.94 176.69 0 169.98 0 169.98-14.94 170.03-14.94Q170.03-15.97 169.64-16.88 169.25-17.8 168.56-18.48 167.88-19.17 166.98-19.56 166.07-19.95 165.05-19.95L165.05-19.95Q164-19.95 163.07-19.56 162.14-19.17 161.46-18.48 160.78-17.8 160.39-16.88 159.99-15.97 159.99-14.94L159.99-14.94ZM206.7-13.31L206.7-13.31Q206.7-10.38 205.65-7.85 204.6-5.32 202.79-3.48 200.98-1.64 198.55-0.57 196.13 0.49 193.34 0.49L193.34 0.49Q190.58 0.49 188.15-0.57 185.72-1.64 183.91-3.48 182.09-5.32 181.04-7.85 179.99-10.38 179.99-13.31L179.99-13.31Q179.99-16.28 181.04-18.82 182.09-21.36 183.91-23.21 185.72-25.05 188.15-26.1 190.58-27.15 193.34-27.15L193.34-27.15Q196.13-27.15 198.55-26.16 200.98-25.17 202.79-23.35 204.6-21.53 205.65-18.98 206.7-16.43 206.7-13.31ZM199.98-13.31L199.98-13.31Q199.98-14.92 199.46-16.22 198.93-17.53 198.03-18.47 197.13-19.41 195.92-19.91 194.71-20.41 193.34-20.41L193.34-20.41Q191.97-20.41 190.77-19.91 189.56-19.41 188.67-18.47 187.78-17.53 187.26-16.22 186.75-14.92 186.75-13.31L186.75-13.31Q186.75-11.79 187.26-10.5 187.78-9.2 188.67-8.25 189.56-7.3 190.77-6.75 191.97-6.2 193.34-6.2L193.34-6.2Q194.71-6.2 195.92-6.71 197.13-7.23 198.03-8.15 198.93-9.08 199.46-10.4 199.98-11.72 199.98-13.31ZM217.09-1.76L217.09 9.96 210.38 9.96 210.38-26.15 211.99-26.15 214.65-23Q215.56-23.85 216.63-24.61 217.7-25.37 218.86-25.92 220.02-26.46 221.27-26.78 222.51-27.1 223.78-27.1L223.78-27.1Q226.54-27.1 228.97-26.11 231.4-25.12 233.22-23.32 235.04-21.51 236.09-18.96 237.14-16.41 237.14-13.31L237.14-13.31Q237.14-10.08 236.09-7.51 235.04-4.93 233.22-3.14 231.4-1.34 228.97-0.39 226.54 0.56 223.78 0.56L223.78 0.56Q222.9 0.56 222.04 0.37 221.17 0.17 220.33-0.16 219.49-0.49 218.67-0.9 217.85-1.32 217.09-1.76L217.09-1.76ZM230.45-13.31L230.45-13.31Q230.45-14.97 229.92-16.28 229.4-17.6 228.5-18.52 227.59-19.43 226.37-19.92 225.15-20.41 223.78-20.41L223.78-20.41Q222.42-20.41 221.21-19.92 220-19.43 219.1-18.52 218.19-17.6 217.67-16.28 217.14-14.97 217.14-13.31L217.14-13.31Q217.14-11.72 217.67-10.4 218.19-9.08 219.1-8.15 220-7.23 221.21-6.71 222.42-6.2 223.78-6.2L223.78-6.2Q225.15-6.2 226.37-6.71 227.59-7.23 228.5-8.15 229.4-9.08 229.92-10.4 230.45-11.72 230.45-13.31Z" opacity="1" transform="matrix(1,0,0,1,0,0)" fill="#00172d" class="undefined-text-0" data-fill-palette-color="primary" id="text-0"></path></svg></g></svg></g><g transform="matrix(1,0,0,1,163.310208,98.8009841208241)"><svg viewBox="0 0 232.209792 11.409990793416917" height="11.409990793416917" width="232.209792"><g transform="matrix(1,0,0,1,0,0)"><svg width="232.209792" viewBox="3.25 -35.5 722.3699951171875 35.5" height="11.409990793416917" data-palette-color="#233565"><path d="M27.25-7.01L27.25 0 3.25 0 3.25-35.01 27.25-35.01 27.25-28 10.25-28 10.25-21 21.75-21 21.75-13.99 10.25-13.99 10.25-7.01 27.25-7.01ZM50.9-35.01L58.91-35.01 47.41 0 40.4 0 28.95-35.01 36.91-35.01 43.89-11.65 50.9-35.01ZM86.25-7.01L86.25 0 62.25 0 62.25-35.01 86.25-35.01 86.25-28 69.26-28 69.26-21 80.76-21 80.76-13.99 69.26-13.99 69.26-7.01 86.25-7.01ZM105.17-28L98.16-28 98.16-13.99 105.17-13.99Q106.61-13.99 107.88-14.54 109.15-15.09 110.1-16.04 111.05-16.99 111.6-18.27 112.15-19.56 112.15-21L112.15-21Q112.15-22.44 111.6-23.72 111.05-25 110.1-25.95 109.15-26.9 107.88-27.45 106.61-28 105.17-28L105.17-28ZM98.16-7.01L98.16 0 91.15 0 91.15-35.01 105.17-35.01Q107.1-35.01 108.88-34.51 110.66-34.01 112.21-33.09 113.76-32.18 115.04-30.9 116.33-29.61 117.24-28.05 118.16-26.49 118.66-24.71 119.16-22.92 119.16-21L119.16-21Q119.16-19.19 118.71-17.48 118.25-15.77 117.41-14.23 116.57-12.7 115.35-11.4 114.13-10.11 112.61-9.16L112.61-9.16 116.5 0 109.05 0 106-7.06 98.16-7.01ZM139.49-10.96L139.49 0 132.51 0 132.51-10.96Q130.19-11.55 128.25-12.84 126.31-14.14 124.92-15.93 123.53-17.72 122.76-19.91 121.99-22.09 121.99-24.51L121.99-24.51 121.99-35.01 128.99-35.01 128.99-24.51Q128.99-23.07 129.54-21.79 130.09-20.51 131.04-19.56 132-18.6 133.28-18.05 134.56-17.5 136-17.5L136-17.5Q137.44-17.5 138.72-18.05 140-18.6 140.96-19.56 141.91-20.51 142.46-21.79 143.01-23.07 143.01-24.51L143.01-24.51 143.01-35.01 149.99-35.01 149.99-24.51Q149.99-22.09 149.22-19.91 148.45-17.72 147.06-15.93 145.67-14.14 143.74-12.84 141.81-11.55 139.49-10.96L139.49-10.96ZM203.48-25L203.48 0 196.49 0 196.49-25Q196.49-25.73 196.21-26.37 195.93-27 195.46-27.48 194.98-27.95 194.35-28.22 193.71-28.49 192.98-28.49L192.98-28.49Q192.25-28.49 191.61-28.22 190.98-27.95 190.5-27.48 190.02-27 189.76-26.37 189.49-25.73 189.49-25L189.49-25 189.49 0 182.48 0 182.48-25Q182.48-25.73 182.21-26.37 181.94-27 181.47-27.48 180.99-27.95 180.36-28.22 179.72-28.49 178.99-28.49L178.99-28.49Q178.26-28.49 177.62-28.22 176.99-27.95 176.51-27.48 176.03-27 175.77-26.37 175.5-25.73 175.5-25L175.5-25 175.5 0 168.49 0 168.49-25Q168.49-27.17 169.31-29.09 170.13-31.01 171.55-32.43 172.98-33.86 174.9-34.68 176.82-35.5 178.99-35.5L178.99-35.5Q180.94-35.5 182.75-34.8 184.56-34.11 186-32.79L186-32.79Q187.44-34.11 189.23-34.8 191.03-35.5 192.98-35.5L192.98-35.5Q195.15-35.5 197.07-34.68 198.98-33.86 200.41-32.43 201.84-31.01 202.66-29.09 203.48-27.17 203.48-25L203.48-25ZM233.72-7.01L233.72 0 209.72 0 209.72-35.01 233.72-35.01 233.72-28 216.73-28 216.73-21 228.23-21 228.23-13.99 216.73-13.99 216.73-7.01 233.72-7.01ZM245.22-13.99L259.23-13.99 259.23-21Q259.23-22.44 258.68-23.72 258.13-25 257.18-25.95 256.23-26.9 254.95-27.45 253.67-28 252.23-28L252.23-28Q250.79-28 249.5-27.45 248.22-26.9 247.27-25.95 246.32-25 245.77-23.72 245.22-22.44 245.22-21L245.22-21 245.22-13.99ZM266.24-21L266.24 0 259.23 0 259.23-7.01 245.22-7.01 245.22 0 238.24 0 238.24-21Q238.24-23.9 239.34-26.45 240.43-29 242.33-30.91 244.22-32.81 246.77-33.91 249.32-35.01 252.23-35.01L252.23-35.01Q255.13-35.01 257.68-33.91 260.23-32.81 262.14-30.91 264.04-29 265.14-26.45 266.24-23.9 266.24-21L266.24-21ZM296.83-7.01L296.83 0 272.32 0 272.32-35.01 279.32-35.01 279.32-7.01 296.83-7.01ZM321.46-35.01L321.46 0 314.45 0 314.45-35.01 321.46-35.01ZM325.9-24.51L325.9-24.51Q325.9-26.68 326.73-28.59 327.56-30.49 328.99-31.92 330.41-33.35 332.32-34.18 334.22-35.01 336.4-35.01L336.4-35.01 352.46-35.01 352.46-28 336.4-28Q335.66-28 335.03-27.73 334.39-27.47 333.92-26.99 333.44-26.51 333.17-25.88 332.9-25.24 332.9-24.51L332.9-24.51Q332.9-23.78 333.17-23.13 333.44-22.49 333.92-22.01 334.39-21.53 335.03-21.26 335.66-21 336.4-21L336.4-21 343.4-21Q345.58-21 347.49-20.18 349.41-19.36 350.84-17.93 352.26-16.5 353.08-14.59 353.9-12.67 353.9-10.5L353.9-10.5Q353.9-8.33 353.08-6.42 352.26-4.52 350.84-3.09 349.41-1.66 347.49-0.83 345.58 0 343.4 0L343.4 0 327.85 0 327.85-7.01 343.4-7.01Q344.14-7.01 344.77-7.28 345.4-7.54 345.88-8.02 346.36-8.5 346.63-9.13 346.89-9.77 346.89-10.5L346.89-10.5Q346.89-11.23 346.63-11.87 346.36-12.5 345.88-12.98 345.4-13.45 344.77-13.72 344.14-13.99 343.4-13.99L343.4-13.99 336.4-13.99Q334.22-13.99 332.32-14.82 330.41-15.65 328.99-17.08 327.56-18.51 326.73-20.42 325.9-22.34 325.9-24.51ZM379.07-13.99L393.08-13.99 393.08-21Q393.08-22.44 392.53-23.72 391.98-25 391.03-25.95 390.08-26.9 388.8-27.45 387.51-28 386.07-28L386.07-28Q384.63-28 383.35-27.45 382.07-26.9 381.12-25.95 380.17-25 379.62-23.72 379.07-22.44 379.07-21L379.07-21 379.07-13.99ZM400.09-21L400.09 0 393.08 0 393.08-7.01 379.07-7.01 379.07 0 372.08 0 372.08-21Q372.08-23.9 373.18-26.45 374.28-29 376.17-30.91 378.07-32.81 380.62-33.91 383.17-35.01 386.07-35.01L386.07-35.01Q388.98-35.01 391.53-33.91 394.08-32.81 395.99-30.91 397.89-29 398.99-26.45 400.09-23.9 400.09-21L400.09-21ZM427.16-13.99L427.16 0 420.15 0 420.15-35.01 427.16-35.01 427.16-21 441.15-21 441.15-35.01 448.15-35.01 448.15 0 441.15 0 441.15-13.99 427.16-13.99ZM461.24-13.99L475.25-13.99 475.25-21Q475.25-22.44 474.7-23.72 474.15-25 473.2-25.95 472.25-26.9 470.97-27.45 469.68-28 468.24-28L468.24-28Q466.8-28 465.52-27.45 464.24-26.9 463.29-25.95 462.34-25 461.79-23.72 461.24-22.44 461.24-21L461.24-21 461.24-13.99ZM482.26-21L482.26 0 475.25 0 475.25-7.01 461.24-7.01 461.24 0 454.25 0 454.25-21Q454.25-23.9 455.35-26.45 456.45-29 458.34-30.91 460.24-32.81 462.79-33.91 465.34-35.01 468.24-35.01L468.24-35.01Q471.15-35.01 473.7-33.91 476.25-32.81 478.16-30.91 480.06-29 481.16-26.45 482.26-23.9 482.26-21L482.26-21ZM502.35-28L495.34-28 495.34-13.99 502.35-13.99Q503.79-13.99 505.06-14.54 506.33-15.09 507.28-16.04 508.23-16.99 508.78-18.27 509.33-19.56 509.33-21L509.33-21Q509.33-22.44 508.78-23.72 508.23-25 507.28-25.95 506.33-26.9 505.06-27.45 503.79-28 502.35-28L502.35-28ZM495.34-7.01L495.34 0 488.33 0 488.33-35.01 502.35-35.01Q504.28-35.01 506.06-34.51 507.84-34.01 509.39-33.09 510.94-32.18 512.22-30.9 513.5-29.61 514.42-28.05 515.34-26.49 515.84-24.71 516.34-22.92 516.34-21L516.34-21Q516.34-18.12 515.24-15.56 514.14-13.01 512.24-11.11 510.33-9.2 507.78-8.11 505.23-7.01 502.35-7.01L502.35-7.01 495.34-7.01ZM534.45-28L527.44-28 527.44-13.99 534.45-13.99Q535.89-13.99 537.16-14.54 538.43-15.09 539.38-16.04 540.33-16.99 540.88-18.27 541.43-19.56 541.43-21L541.43-21Q541.43-22.44 540.88-23.72 540.33-25 539.38-25.95 538.43-26.9 537.16-27.45 535.89-28 534.45-28L534.45-28ZM527.44-7.01L527.44 0 520.44 0 520.44-35.01 534.45-35.01Q536.38-35.01 538.16-34.51 539.94-34.01 541.49-33.09 543.04-32.18 544.33-30.9 545.61-29.61 546.52-28.05 547.44-26.49 547.94-24.71 548.44-22.92 548.44-21L548.44-21Q548.44-18.12 547.34-15.56 546.24-13.01 544.34-11.11 542.43-9.2 539.88-8.11 537.33-7.01 534.45-7.01L534.45-7.01 527.44-7.01ZM568.28-10.96L568.28 0 561.3 0 561.3-10.96Q558.98-11.55 557.04-12.84 555.1-14.14 553.71-15.93 552.32-17.72 551.55-19.91 550.78-22.09 550.78-24.51L550.78-24.51 550.78-35.01 557.79-35.01 557.79-24.51Q557.79-23.07 558.34-21.79 558.89-20.51 559.84-19.56 560.79-18.6 562.07-18.05 563.35-17.5 564.79-17.5L564.79-17.5Q566.23-17.5 567.52-18.05 568.8-18.6 569.75-19.56 570.7-20.51 571.25-21.79 571.8-23.07 571.8-24.51L571.8-24.51 571.8-35.01 578.78-35.01 578.78-24.51Q578.78-22.09 578.01-19.91 577.24-17.72 575.85-15.93 574.46-14.14 572.53-12.84 570.6-11.55 568.28-10.96L568.28-10.96ZM632.27-25L632.27 0 625.29 0 625.29-25Q625.29-25.73 625.01-26.37 624.73-27 624.25-27.48 623.77-27.95 623.14-28.22 622.5-28.49 621.77-28.49L621.77-28.49Q621.04-28.49 620.4-28.22 619.77-27.95 619.29-27.48 618.82-27 618.55-26.37 618.28-25.73 618.28-25L618.28-25 618.28 0 611.27 0 611.27-25Q611.27-25.73 611-26.37 610.74-27 610.26-27.48 609.78-27.95 609.15-28.22 608.51-28.49 607.78-28.49L607.78-28.49Q607.05-28.49 606.41-28.22 605.78-27.95 605.3-27.48 604.83-27 604.56-26.37 604.29-25.73 604.29-25L604.29-25 604.29 0 597.28 0 597.28-25Q597.28-27.17 598.1-29.09 598.92-31.01 600.35-32.43 601.78-33.86 603.69-34.68 605.61-35.5 607.78-35.5L607.78-35.5Q609.74-35.5 611.54-34.8 613.35-34.11 614.79-32.79L614.79-32.79Q616.23-34.11 618.02-34.8 619.82-35.5 621.77-35.5L621.77-35.5Q623.94-35.5 625.86-34.68 627.78-33.86 629.21-32.43 630.63-31.01 631.45-29.09 632.27-27.17 632.27-25L632.27-25ZM662.52-7.01L662.52 0 638.52 0 638.52-35.01 662.52-35.01 662.52-28 645.52-28 645.52-21 657.02-21 657.02-13.99 645.52-13.99 645.52-7.01 662.52-7.01ZM674.01-13.99L688.03-13.99 688.03-21Q688.03-22.44 687.48-23.72 686.93-25 685.98-25.95 685.02-26.9 683.74-27.45 682.46-28 681.02-28L681.02-28Q679.58-28 678.3-27.45 677.02-26.9 676.06-25.95 675.11-25 674.56-23.72 674.01-22.44 674.01-21L674.01-21 674.01-13.99ZM695.03-21L695.03 0 688.03 0 688.03-7.01 674.01-7.01 674.01 0 667.03 0 667.03-21Q667.03-23.9 668.13-26.45 669.23-29 671.12-30.91 673.01-32.81 675.56-33.91 678.11-35.01 681.02-35.01L681.02-35.01Q683.92-35.01 686.48-33.91 689.03-32.81 690.93-30.91 692.84-29 693.93-26.45 695.03-23.9 695.03-21L695.03-21ZM725.62-7.01L725.62 0 701.11 0 701.11-35.01 708.12-35.01 708.12-7.01 725.62-7.01Z" opacity="1" transform="matrix(1,0,0,1,0,0)" fill="#233565" class="undefined-text-1" data-fill-palette-color="secondary" id="text-1"></path></svg></g></svg></g></svg></g></svg></g><g transform="matrix(1,0,0,1,414.38982768641057,0)"><svg viewBox="0 0 175.48967024111673 152.3115673314811" height="152.3115673314811" width="175.48967024111673"><g><svg xmlns="http://www.w3.org/2000/svg" xmlns:xlink="http://www.w3.org/1999/xlink" version="1.1" x="0" y="0" viewBox="9.043078422546387 16.19999885559082 77.85692596435547 67.57383728027344" style="enable-background:new 0 0 100 100;" xml:space="preserve" height="152.3115673314811" width="175.48967024111673" class="icon-icon-0" data-fill-palette-color="accent" id="icon-0"><g fill="#4163f3" data-fill-palette-color="accent"><g fill="#4163f3" data-fill-palette-color="accent"><path d="M81 64.8c1.2-0.6 2.7-0.1 3.3 1.2 0.6 1.2 0.1 2.7-1.1 3.3-5 2.4-18.4 8.9-20.8 10.1-2.5 1.2-3.3 1.5-6.1 0.9-4-0.8-17.9-4.4-20.1-5.1-1.3-0.4-2.3-0.1-4.1 0.8-1.3 0.6-7.5 3.6-10.1 4.9-0.6 0.3-1.3 0-1.6-0.6l-5.6-11.5c-0.3-0.6 0-1.3 0.6-1.6 5.4-2.1 10.3-4.2 14.1-5.8 2-0.8 6.3-2.9 10.4-1.5 2.9 1 18.4 7.2 20.7 8 1.3 0.4 2 1.9 1.5 3.2-0.4 1.3-1.9 2-3.2 1.5-3.7-1.3-5.3-1.8-6.8-2.3-1.2-0.4-2.1 0.2-2.4 0.9-0.3 0.9 0 2.1 1.1 2.5 2.2 0.8 5.4 1.9 7.6 2.5 1.8 0.5 4.9-0.3 6.3-2.5 0.9-1.5 1.4-1.7 2.1-2C68.3 71 79.4 65.6 81 64.8z" fill="#4163f3" data-fill-palette-color="accent"></path></g><path d="M16.4 83.6l1.3-0.6c0.8-0.4 1.2-1.4 0.8-2.2l-5-10.9c-0.4-0.8-1.4-1.2-2.2-0.8L10 69.7c-0.8 0.4-1.2 1.4-0.8 2.2l5 10.9C14.6 83.7 15.6 84 16.4 83.6z" fill="#4163f3" data-fill-palette-color="accent"></path><g fill="#4163f3" data-fill-palette-color="accent"><path d="M84.8 55.8h-63c-1.2 0-2.1-1-2.1-2.1v-1.9c0-1.2 1-2.1 2.1-2.1h63c1.2 0 2.1 1 2.1 2.1v1.9C86.9 54.8 86 55.8 84.8 55.8z" fill="#4163f3" data-fill-palette-color="accent"></path><path d="M86.6 47.5c-2.4-15.2-16.4-26.9-33.2-26.9-16.9 0-30.8 11.7-33.2 26.9H86.6z" fill="#4163f3" data-fill-palette-color="accent"></path><circle cx="53.3" cy="18.9" r="2.7" fill="#4163f3" data-fill-palette-color="accent"></circle></g></g></svg></g></svg></g></svg></g><defs></defs></svg><rect width="395.52" height="102.12640263409997" fill="none" stroke="none" visibility="hidden"></rect></g></svg></g></svg>